HIERARCHY
    ROOT Hips
    {
        OFFSET -42.200000 91.615000 -40.070000
        CHANNELS 6 Xposition Yposition Zposition Zrotation Yrotation Xrotation 
        JOINT Thigh_L
        {
            OFFSET 0.103500 1.857800 10.548500
            CHANNELS 3 Zrotation Yrotation Xrotation
            JOINT Shin_L
            {
                OFFSET 43.500000 0.000000 0.000000
                CHANNELS 3 Zrotation Yrotation Xrotation
                JOINT Foot_L
                {
                    OFFSET 42.372000 0.000000 0.000000
                    CHANNELS 3 Zrotation Yrotation Xrotation
                    JOINT Toe_L
                    {
                        OFFSET 17.300000 0.000000 0.000000
                        CHANNELS 3 Zrotation Yrotation Xrotation
                        End Site
                        {
                            OFFSET 10.000000 0.000000 0.000000
                        }
                    }
                }
            }
        }
        JOINT Thigh_R
        {
            OFFSET 0.103500 1.857800 -10.548500
            CHANNELS 3 Zrotation Yrotation Xrotation
            JOINT Shin_R
            {
                OFFSET 43.500000 0.000000 0.000000
                CHANNELS 3 Zrotation Yrotation Xrotation
                JOINT Foot_R
                {
                    OFFSET 42.372000 0.000000 0.000000
                    CHANNELS 3 Zrotation Yrotation Xrotation
                    JOINT Toe_R
                    {
                        OFFSET 17.300000 0.000000 0.000000
                        CHANNELS 3 Zrotation Yrotation Xrotation
                        End Site 
                        {
                            OFFSET 10.000000 0.000000 0.000000
                        }
                    }
                }
            }
        }
        JOINT Spine
        {
            OFFSET 6.900000 -2.600000 0.000000
            CHANNELS 3 Zrotation Yrotation Xrotation
            JOINT Spine1
            {
                OFFSET 12.588000 0.000000 0.000000
                CHANNELS 3 Zrotation Yrotation Xrotation
                JOINT Spine2
                {
                    OFFSET 12.343000 0.000000 0.000000
                    CHANNELS 3 Zrotation Yrotation Xrotation
                    JOINT Neck
                    {
                        OFFSET 25.833000 0.000000 0.000000
                        CHANNELS 3 Zrotation Yrotation Xrotation
                        JOINT Head
                        {
                            OFFSET 11.766600 0.000000 0.000000
                            CHANNELS 3 Zrotation Yrotation Xrotation
                            End Site
                            {
                                OFFSET 10.000000 0.000000 0.000000
                            }
                        }
                    }
                    JOINT Shoulder_L
                    {
                        OFFSET 19.746000 -1.480000 6.000000
                        CHANNELS 3 Zrotation Yrotation Xrotation
                        JOINT UpperArm_L
                        {
                            OFFSET 11.284000 0.000000 0.000000
                            CHANNELS 3 Zrotation Yrotation Xrotation
                            JOINT Forearm_L
                            {
                                OFFSET 33.000000 0.000000 0.000000
                                CHANNELS 3 Zrotation Yrotation Xrotation
                                JOINT Hand_L
                                {
                                    OFFSET 25.200000 0.000000 0.000000
                                    CHANNELS 3 Zrotation Yrotation Xrotation
                                    End Site
                                    {
                                        OFFSET 10.000000 0.000000 0.000000
                                    }
                                }
                            }
                        }
                    }
                    JOINT Shoulder_R
                    {
                        OFFSET 19.745000 -1.480000 -6.000000
                        CHANNELS 3 Zrotation Yrotation Xrotation
                        JOINT UpperArm_R
                        {
                            OFFSET 11.284000 0.000000 0.000000
                            CHANNELS 3 Zrotation Yrotation Xrotation
                            JOINT Forearm_R
                            {
                                OFFSET 33.000000 0.000000 0.000000
                                CHANNELS 3 Zrotation Yrotation Xrotation
                                JOINT Hand_R
                                {
                                    OFFSET 25.200000 0.000000 0.000000
                                    CHANNELS 3 Zrotation Yrotation Xrotation
                                    End Site
                                    {
                                        OFFSET 10.000000 0.000000 0.000000
                                    }
                                }
                            }
                        }
                    }
                }
            }
        }
    }
    MOTION 
Frames: 5 
Frame Time: 0.033333 
-49.5 75.4 -5.8 89.63895416259766 7.896545886993408 -177.7151336669922 155.96275329589844 -7.4753313064575195 -175.2412567138672 -130.9141082763672 4.2078776359558105 -15.016507148742676 74.49360656738281 13.767135620117188 -10.480932235717773 21.0181941986084 -0.47227370738983154 -0.21892711520195007 143.2689971923828 5.335691452026367 -166.0056610107422 -72.57378387451172 -2.5454342365264893 -5.196585655212402 103.41015625 10.185945510864258 8.62742805480957 21.406679153442383 0.05850861594080925 0.45229572057724 6.94058084487915 3.1622424125671387 -1.4686881303787231 6.949032306671143 3.480426788330078 -3.682044506072998 7.047860145568848 3.982377290725708 -5.27348518371582 -9.017562866210938 8.614017486572266 -5.1664557456970215 -21.85167121887207 -6.474699020385742 -0.169272780418396 174.25120544433594 -84.44684600830078 7.068110466003418 0.40228694677352905 61.71217346191406 50.45505905151367 -39.0308952331543 -13.364418029785156 4.602203369140625 12.526551246643066 -7.388456344604492 -5.0898356437683105 -178.8590850830078 71.08202362060547 3.5258328914642334 3.9475419521331787 -54.36911392211914 -20.84512710571289 -22.556964874267578 8.348925590515137 -0.3785240948200226 6.866135597229004 6.050086498260498 -5.140504360198975
-41.3 76.4 -5.4 90.25431823730469 8.181512832641602 -179.74261474609375 136.34613037109375 -3.326198101043701 -174.6643524169922 -142.74436950683594 2.8207790851593018 -14.941890716552734 76.3646469116211 16.73284149169922 -8.623086929321289 20.974815368652344 -0.5248618721961975 -0.2143019735813141 150.73497009277344 4.645953178405762 -166.42581176757812 -71.36190795898438 -1.947127342224121 -6.108943939208984 107.18934631347656 11.43307876586914 9.812615394592285 21.37751007080078 0.07134496420621872 0.5114160180091858 5.712649822235107 3.03983736038208 -0.5187847018241882 7.607934474945068 3.553645133972168 -1.9577544927597046 7.519958019256592 3.8409440517425537 -3.557784080505371 -8.669707298278809 8.45385456085205 -5.507845401763916 -21.71291732788086 -5.885855197906494 -1.0636309385299683 -176.62916564941406 -84.76276397705078 -1.2367886304855347 11.541945457458496 57.416168212890625 61.09700012207031 -41.85286331176758 -12.688722610473633 5.34190559387207 13.09278392791748 -6.803351402282715 -5.544672012329102 176.85702514648438 72.69024658203125 -0.16463863849639893 -9.072415351867676 -51.82481384277344 -7.635026931762695 -33.9797248840332 8.628331184387207 -0.9559115767478943 5.855139255523682 6.90405797958374 -6.064617156982422
-33.3 78.5 -5.6 90.56507110595703 7.864724636077881 178.85682678222656 118.15284729003906 0.013460488989949226 -176.52366638183594 -145.30572509765625 2.626969814300537 -14.28296947479248 75.86260223388672 18.670822143554688 -7.140624046325684 20.924657821655273 -0.5824815034866333 -0.20436257123947144 159.37896728515625 4.748354911804199 -167.4008331298828 -66.06552124023438 -1.0516223907470703 -6.712780952453613 106.84783935546875 12.051054000854492 11.228909492492676 21.34229850769043 0.08189734816551208 0.570220947265625 4.573979377746582 2.96104097366333 0.37745600938796997 7.823325157165527 3.08567214012146 -0.27233076095581055 7.755753517150879 3.0137341022491455 -1.9838624000549316 -7.699033737182617 7.919382572174072 -5.879493713378906 -21.451248168945312 -4.904408931732178 -2.3006458282470703 -156.8804931640625 -86.00580596923828 -19.92365264892578 21.320737838745117 49.28583908081055 69.42019653320312 -50.8503303527832 -11.9207124710083 6.733609676361084 13.279876708984375 -6.190709114074707 -5.5290751457214355 172.07266235351562 76.48680877685547 -4.599315166473389 -15.426446914672852 -48.154056549072266 0.26390454173088074 -54.1151237487793 8.882372856140137 -2.26637864112854 4.3919477462768555 7.670813083648682 -7.40492582321167
-25.4 82.1 -6.1 90.89869689941406 6.831320285797119 178.05348205566406 105.20208740234375 1.8614931106567383 -179.89959716796875 -140.62139892578125 3.0731618404388428 -13.476486206054688 74.3865737915039 19.886770248413086 -5.701214790344238 20.864948272705078 -0.6481382846832275 -0.18964539468288422 168.4404296875 5.823166370391846 -168.53807067871094 -57.47990036010742 0.01701570861041546 -7.016407012939453 97.9863510131836 12.985369682312012 12.43282413482666 21.29790496826172 0.09210147708654404 0.6294689178466797 3.7167294025421143 2.772660732269287 1.1877797842025757 7.476877689361572 2.3378751277923584 1.350959300994873 7.481271743774414 1.735416293144226 -0.5335981249809265 -6.172863960266113 7.135025501251221 -6.433418273925781 -20.904293060302734 -3.57214617729187 -3.8720595836639404 -116.03848266601562 -86.76348114013672 -59.634090423583984 28.66777992248535 38.89262771606445 74.64042663574219 -61.98332595825195 -10.907557487487793 8.124890327453613 13.28335189819336 -5.4700093269348145 -5.448411464691162 163.99264526367188 81.55049896240234 -12.482024192810059 -16.423450469970703 -44.094482421875 4.187800884246826 -78.15206146240234 8.729202270507812 -3.9776883125305176 2.835573673248291 8.226852416992188 -8.695467948913574
-17.4 87.3 -6.8 91.30728912353516 5.493156433105469 177.66976928710938 98.60664367675781 2.8067188262939453 176.78973388671875 -129.8772735595703 3.70355224609375 -12.6449556350708 76.54531860351562 20.50860023498535 -3.1374146938323975 20.794166564941406 -0.7257892489433289 -0.17006005346775055 176.88087463378906 7.590994834899902 -169.4932861328125 -46.88588333129883 1.0680674314498901 -7.130000114440918 77.5573501586914 15.296942710876465 12.747344970703125 21.242856979370117 0.10535669326782227 0.6906667351722717 3.2415947914123535 1.9093691110610962 2.0180652141571045 6.8429999351501465 1.6245890855789185 3.0604445934295654 6.73413610458374 0.5339387655258179 1.0265140533447266 -4.489531517028809 6.421064853668213 -7.285162448883057 -20.10280990600586 -1.9187042713165283 -5.700033187866211 -83.61302185058594 -85.96002960205078 -91.1426773071289 34.59172821044922 29.036489486694336 77.54169464111328 -72.2825927734375 -9.940299034118652 9.192835807800293 13.167046546936035 -4.734076976776123 -5.5425591468811035 140.69387817382812 86.07649230957031 -35.603092193603516 -14.540350914001465 -40.47261047363281 6.21653938293457 -98.90027618408203 8.187204360961914 -5.435960292816162 1.5088911056518555 8.57824420928955 -9.484820365905762
